HIERARCHY
ROOT hip
{
  OFFSET 0 0 0
  CHANNELS 6 Xposition Yposition Zposition Zrotation Yrotation Xrotation
  JOINT abdomen
  {
    OFFSET 0 20.6881 -0.73152
    CHANNELS 3 Zrotation Xrotation Yrotation
    JOINT chest
    {
      OFFSET 0 11.7043 -0.48768
      CHANNELS 3 Zrotation Xrotation Yrotation
      JOINT neck
      {
        OFFSET 0 22.1894 -2.19456
        CHANNELS 3 Zrotation Xrotation Yrotation
        JOINT head
        {
          OFFSET -0.24384 7.07133 1.2192
          CHANNELS 3 Zrotation Xrotation Yrotation
          JOINT leftEye
          {
            OFFSET 4.14528 8.04674 8.04672
            CHANNELS 3 Zrotation Xrotation Yrotation
            End Site
            {
              OFFSET 1 0 0
            }
          }
          JOINT rightEye
          {
            OFFSET -3.6576 8.04674 8.04672
            CHANNELS 3 Zrotation Xrotation Yrotation
            End Site
            {
              OFFSET 1 0 0
            }
          }
        }
      }
      JOINT rCollar
      {
        OFFSET -2.68224 19.2634 -4.8768
        CHANNELS 3 Zrotation Xrotation Yrotation
        JOINT rShldr
        {
          OFFSET -8.77824 -1.95073 1.46304
          CHANNELS 3 Zrotation Xrotation Yrotation
          JOINT rForeArm
          {
            OFFSET -28.1742 -1.7115 0.48768
            CHANNELS 3 Zrotation Xrotation Yrotation
            JOINT rHand
            {
              OFFSET -22.5879 0.773209 7.07136
              CHANNELS 3 Zrotation Xrotation Yrotation
              JOINT rThumb1
              {
                OFFSET -1.2192 -0.487915 3.41376
                CHANNELS 3 Zrotation Xrotation Yrotation
                JOINT rThumb2
                {
                  OFFSET -3.37035 -0.52449 3.41376
                  CHANNELS 3 Zrotation Xrotation Yrotation
                  End Site
                  {
                    OFFSET -1.78271 -1.18214 1.43049
                  }
                }
              }
              JOINT rIndex1
              {
                OFFSET -7.75947 0.938293 5.60832
                CHANNELS 3 Zrotation Xrotation Yrotation
                JOINT rIndex2
                {
                  OFFSET -2.54057 -0.884171 1.56538
                  CHANNELS 3 Zrotation Xrotation Yrotation
                  End Site
                  {
                    OFFSET -1.62519 -0.234802 1.16502
                  }
                }
              }
              JOINT rMid1
              {
                OFFSET -8.24714 1.18213 3.41376
                CHANNELS 3 Zrotation Xrotation Yrotation
                JOINT rMid2
                {
                  OFFSET -3.10165 -0.590103 1.0647
                  CHANNELS 3 Zrotation Xrotation Yrotation
                  End Site
                  {
                    OFFSET -2.48547 -0.328903 0.83742
                  }
                }
              }
              JOINT rRing1
              {
                OFFSET -8.82822 0.546677 1.51678
                CHANNELS 3 Zrotation Xrotation Yrotation
                JOINT rRing2
                {
                  OFFSET -2.60934 -0.819778 -0.0198488
                  CHANNELS 3 Zrotation Xrotation Yrotation
                  End Site
                  {
                    OFFSET -2.33842 -0.294052 0.168128
                  }
                }
              }
              JOINT rPinky1
              {
                OFFSET -8.27202 -0.0477905 -0.4584
                CHANNELS 3 Zrotation Xrotation Yrotation
                JOINT rPinky2
                {
                  OFFSET -1.82734 -0.647385 -0.700984
                  CHANNELS 3 Zrotation Xrotation Yrotation
                  End Site
                  {
                    OFFSET -1.69225 -0.51767 -0.607171
                  }
                }
              }
            }
          }
        }
      }
      JOINT lCollar
      {
        OFFSET 2.68224 19.2634 -4.8768
        CHANNELS 3 Zrotation Xrotation Yrotation
        JOINT lShldr
        {
          OFFSET 8.77824 -1.95073 1.46304
          CHANNELS 3 Zrotation Xrotation Yrotation
          JOINT lForeArm
          {
            OFFSET 28.1742 -1.7115 0.48768
            CHANNELS 3 Zrotation Xrotation Yrotation
            JOINT lHand
            {
              OFFSET 22.5879 0.773209 7.07136
              CHANNELS 3 Zrotation Xrotation Yrotation
              JOINT lThumb1
              {
                OFFSET 1.2192 -0.487915 3.41376
                CHANNELS 3 Zrotation Xrotation Yrotation
                JOINT lThumb2
                {
                  OFFSET 3.37035 -0.52449 3.41376
                  CHANNELS 3 Zrotation Xrotation Yrotation
                  End Site
                  {
                    OFFSET 1.78271 -1.18214 1.43049
                  }
                }
              }
              JOINT lIndex1
              {
                OFFSET 7.75947 0.938293 5.60832
                CHANNELS 3 Zrotation Xrotation Yrotation
                JOINT lIndex2
                {
                  OFFSET 2.54057 -0.884171 1.56538
                  CHANNELS 3 Zrotation Xrotation Yrotation
                  End Site
                  {
                    OFFSET 1.62519 -0.234802 1.16502
                  }
                }
              }
              JOINT lMid1
              {
                OFFSET 8.24714 1.18213 3.41376
                CHANNELS 3 Zrotation Xrotation Yrotation
                JOINT lMid2
                {
                  OFFSET 3.10165 -0.590103 1.0647
                  CHANNELS 3 Zrotation Xrotation Yrotation
                  End Site
                  {
                    OFFSET 2.48547 -0.328903 0.83742
                  }
                }
              }
              JOINT lRing1
              {
                OFFSET 8.82822 0.546677 1.51678
                CHANNELS 3 Zrotation Xrotation Yrotation
                JOINT lRing2
                {
                  OFFSET 2.60934 -0.819778 -0.0198488
                  CHANNELS 3 Zrotation Xrotation Yrotation
                  End Site
                  {
                    OFFSET 2.33842 -0.294052 0.168128
                  }
                }
              }
              JOINT lPinky1
              {
                OFFSET 8.27202 -0.0477905 -0.4584
                CHANNELS 3 Zrotation Xrotation Yrotation
                JOINT lPinky2
                {
                  OFFSET 1.82734 -0.647385 -0.700984
                  CHANNELS 3 Zrotation Xrotation Yrotation
                  End Site
                  {
                    OFFSET 1.69225 -0.51767 -0.607171
                  }
                }
              }
            }
          }
        }
      }
    }
  }
  JOINT rButtock
  {
    OFFSET -8.77824 4.35084 1.2192
    CHANNELS 3 Zrotation Xrotation Yrotation
    JOINT rThigh
    {
      OFFSET 0 -1.70687 -2.19456
      CHANNELS 3 Zrotation Xrotation Yrotation
      JOINT rShin
      {
        OFFSET 0 -36.8199 0.73152
        CHANNELS 3 Zrotation Xrotation Yrotation
        JOINT rFoot
        {
          OFFSET 0.73152 -45.1104 -5.12064
          CHANNELS 3 Zrotation Xrotation Yrotation
          End Site
          {
            OFFSET -1.1221 -3.69964 12.103
          }
        }
      }
    }
  }
  JOINT lButtock
  {
    OFFSET 8.77824 4.35084 1.2192
    CHANNELS 3 Zrotation Xrotation Yrotation
    JOINT lThigh
    {
      OFFSET 0 -1.70687 -2.19456
      CHANNELS 3 Zrotation Xrotation Yrotation
      JOINT lShin
      {
        OFFSET 0 -36.8199 0.73152
        CHANNELS 3 Zrotation Xrotation Yrotation
        JOINT lFoot
        {
          OFFSET -0.73152 -45.1104 -5.12064
          CHANNELS 3 Zrotation Xrotation Yrotation
          End Site
          {
            OFFSET 1.1221 -3.69964 12.103
          }
        }
      }
    }
  }
}
MOTION
Frames:	4
Frame Time:	0.00833333
45.7825 70.7178 161.115 -198.274 -64.8116 199.561 18.7772 36.8781 -8.37179 1.1817 9.57519 -2.40154 -3.61635 24.7234 -5.59313 25.4936 -38.5645 -3.16635 -0.0 0.0 0.0 -0.0 0.0 0.0 5.2607e-13 2.42507e-13 -2.17922e-13 26.6515 15.0384 29.4855 -26.8045 -25.7058 60.411 -0.00362793 1.71663 0.24133 -4.67043e-09 -5.45871e-09 4.9826e-09 -8.06664e-09 -9.44039e-09 8.62452e-09 -4.67042e-09 -5.45871e-09 4.98259e-09 7.73091 5.47488 0.417314 -4.67043e-09 -5.45871e-09 4.98261e-09 2.90554 0.965183 0.102902 -4.67043e-09 -5.45871e-09 4.98261e-09 10.2786 0.731801 0.0259123 -4.67043e-09 -5.45871e-09 4.98262e-09 2.22167 -0.733487 -0.20892 5.2607e-13 2.42566e-13 -2.1803e-13 -61.1684 29.211 -28.1801 23.4118 -18.0369 -47.7995 0.077675 -7.92474 1.12098 4.7359e-10 2.60329e-09 -1.91419e-09 8.42288e-10 4.50483e-09 -3.31611e-09 4.7359e-10 2.60329e-09 -1.91418e-09 -7.73091 5.47488 -0.417314 4.73591e-10 2.60329e-09 -1.91419e-09 -2.90554 0.965183 -0.102902 4.7359e-10 2.60329e-09 -1.9142e-09 -10.2786 0.731801 -0.0259123 4.73595e-10 2.60329e-09 -1.91421e-09 -2.22167 -0.733487 0.20892 -2.03217e-16 0.0 -3.88251e-19 -31.5293 -50.9 -33.4923 -2.75834 74.1241 3.38518 -10.5881 -19.8272 -20.0542 2.03217e-16 0.0 3.88251e-19 7.20451 -46.5863 15.1027 8.04329 83.5446 -8.86882 5.43992 -14.49 11.2963
45.5778 70.5304 160.787 -197.942 -64.8296 199.286 19.1292 36.925 -8.12882 1.42373 9.50368 -2.32534 -3.60002 24.8729 -5.61508 25.7211 -38.5666 -3.13559 -0.0 0.0 0.0 -0.0 0.0 0.0 3.94347e-13 4.06677e-13 -2.38492e-13 26.3527 14.9631 29.5794 -26.7599 -25.567 60.1894 -0.00368215 1.73237 0.243544 -3.61631e-09 -4.12749e-09 3.97001e-09 -6.24621e-09 -7.13786e-09 6.87129e-09 -3.6163e-09 -4.12749e-09 3.97e-09 7.73091 5.47488 0.417314 -3.61631e-09 -4.12749e-09 3.97002e-09 2.90554 0.965183 0.102902 -3.6163e-09 -4.1275e-09 3.97002e-09 10.2786 0.731801 0.0259123 -3.61631e-09 -4.12749e-09 3.97003e-09 2.22167 -0.733487 -0.20892 3.94356e-13 4.0675e-13 -2.38591e-13 -61.2318 29.1107 -28.1099 23.4027 -18.021 -47.7718 0.0763031 -7.8563 1.11117 1.31108e-09 1.84118e-09 -1.5718e-09 2.28561e-09 3.18605e-09 -2.71758e-09 1.31108e-09 1.84118e-09 -1.57179e-09 -7.73091 5.47488 -0.417314 1.31108e-09 1.84118e-09 -1.5718e-09 -2.90554 0.965183 -0.102902 1.31108e-09 1.84118e-09 -1.5718e-09 -10.2786 0.731801 -0.0259123 1.31109e-09 1.84117e-09 -1.57181e-09 -2.22167 -0.733487 0.20892 -2.03217e-16 0.0 -3.88251e-19 -31.7537 -50.7633 -33.5395 -2.8787 74.6313 3.51181 -10.7817 -20.143 -20.1906 2.03217e-16 0.0 3.88251e-19 6.58763 -47.9638 15.0519 7.96857 83.4778 -8.77359 5.32715 -14.4096 11.1151
45.233 70.4584 160.506 -198.609 -64.9452 199.736 19.3468 36.9726 -7.89017 1.66966 9.41107 -2.25883 -3.61835 25.0658 -5.64899 25.9616 -38.5748 -3.12815 -0.0 0.0 0.0 -0.0 0.0 0.0 9.86658e-14 -2.62134e-14 -3.63197e-14 26.0847 14.9639 29.6373 -26.7117 -25.4187 59.9506 -0.00387027 1.7775 0.249891 -2.85993e-09 -2.46795e-09 1.92189e-09 -4.94255e-09 -4.27084e-09 3.3305e-09 -2.85992e-09 -2.46794e-09 1.92188e-09 7.73091 5.47488 0.417314 -2.85993e-09 -2.46794e-09 1.92189e-09 2.90554 0.965183 0.102902 -2.85993e-09 -2.46794e-09 1.92189e-09 10.2786 0.731801 0.0259123 -2.85993e-09 -2.46794e-09 1.9219e-09 2.22167 -0.733487 -0.20892 9.86643e-14 -2.61409e-14 -3.64448e-14 -61.3143 29.0433 -27.9786 23.3984 -18.0136 -47.7588 0.0758624 -7.8336 1.10792 1.53492e-09 1.47805e-09 -1.90968e-09 2.67154e-09 2.55686e-09 -3.29865e-09 1.53492e-09 1.47805e-09 -1.90967e-09 -7.73091 5.47488 -0.417314 1.53492e-09 1.47805e-09 -1.90968e-09 -2.90554 0.965183 -0.102902 1.53492e-09 1.47805e-09 -1.90968e-09 -10.2786 0.731801 -0.0259123 1.53493e-09 1.47805e-09 -1.90969e-09 -2.22167 -0.733487 0.20892 -2.03217e-16 0.0 -3.88251e-19 -32.0656 -50.5397 -33.505 -3.00145 75.1157 3.64067 -10.939 -20.5457 -20.2157 2.03217e-16 0.0 3.88251e-19 5.6589 -49.1678 14.8166 7.61697 83.2006 -8.40136 5.19738 -14.3688 10.8916
44.8883 70.3585 160.316 -199.501 -64.9547 200.47 19.478 37.0114 -7.65255 1.9075 9.30387 -2.19694 -3.65808 25.2843 -5.69105 26.1975 -38.5881 -3.14008 -0.0 0.0 0.0 -0.0 0.0 0.0 -3.19657e-13 -8.26827e-13 3.08952e-13 25.8423 15.0373 29.6806 -26.6597 -25.2612 59.6971 -0.0041247 1.83559 0.258064 -2.09315e-09 -3.71452e-10 -9.65942e-10 -3.62252e-09 -6.50257e-10 -1.66069e-09 -2.09315e-09 -3.7145e-10 -9.65956e-10 7.73091 5.47488 0.417314 -2.09315e-09 -3.71445e-10 -9.65939e-10 2.90554 0.965183 0.102902 -2.09315e-09 -3.71447e-10 -9.65944e-10 10.2786 0.731801 0.0259123 -2.09315e-09 -3.71445e-10 -9.6594e-10 2.22167 -0.733487 -0.20892 -3.19681e-13 -8.26763e-13 3.08778e-13 -61.4114 28.9791 -27.8022 23.3936 -18.0053 -47.7446 0.0756098 -7.82067 1.10607 1.37511e-09 1.23704e-09 -2.58525e-09 2.39543e-09 2.13849e-09 -4.46536e-09 1.37511e-09 1.23705e-09 -2.58524e-09 -7.73091 5.47488 -0.417314 1.37511e-09 1.23705e-09 -2.58525e-09 -2.90554 0.965183 -0.102902 1.37511e-09 1.23705e-09 -2.58525e-09 -10.2786 0.731801 -0.0259123 1.37512e-09 1.23705e-09 -2.58526e-09 -2.22167 -0.733487 0.20892 -2.03217e-16 0.0 -3.88251e-19 -32.4 -50.2609 -33.3871 -3.12198 75.5629 3.76696 -11.0687 -20.9949 -20.1705 2.03217e-16 0.0 3.88251e-19 4.5076 -50.2409 14.4471 7.06772 82.725 -7.83187 5.05798 -14.3619 10.6453
